<?xml version="1.0" encoding="utf-8"?>
<!-- Generator: Adobe Illustrator 19.2.0, SVG Export Plug-In . SVG Version: 6.00 Build 0)  -->
<svg version="1.1" id="Layer_1" xmlns="http://www.w3.org/2000/svg" xmlns:xlink="http://www.w3.org/1999/xlink" x="0px" y="0px"
	 viewBox="0 0 960 560" style="enable-background:new 0 0 960 560;" xml:space="preserve">
<style type="text/css">
	.st0{fill:#FEFEFE;}
	.st1{fill:#B95148;}
	.st2{fill:#FEFDFD;}
	.st3{fill:#F2E3DE;}
</style>
<g id="_x39_TlM0z_1_">
	<g>
		<path class="st0" d="M494,41.1c87.4,0,174.8,0.1,262.2-0.2c6.8,0,8.1,1.4,8.1,8.1c-0.2,162-0.2,323.9,0,485.9
			c0,6.7-1.4,8.1-8.1,8.1c-174.8-0.2-349.6-0.2-524.3,0c-6.8,0-8.1-1.4-8.1-8.1C224,373,224,211,223.7,49c0-6.7,1.4-8.1,8.1-8.1
			C319.2,41.2,406.6,41.1,494,41.1z"/>
		<path class="st1" d="M429.1,259.6c5.5,72.5,9.5,144.9,14.2,217.4c1.1,16.9-12.2,31.7-29.4,32.3c-12.1,0.4-24.2,0.2-36.2-0.5
			c-16.1-0.9-29-16.6-27.9-33.8c4.1-64.2,4.8-128.4,4.8-192.6c0-37.9-0.9-75.9-1.9-113.8c-0.5-20-19.7-31.5-38.4-24.1
			c-2.3,0.9-3.3,2.2-4.3,4.5c-6.5,13.9-20.7,19.6-38.1,15.5c-12.3-2.9-20-13.4-20-27.8c0-13.1,0.2-26.3,0.4-39.4
			c0.3-12.7,7.3-22.6,18.2-25.8c14.1-4.2,27.1-0.7,34.9,9.4c9.8,12.8,17.1,14.4,28.6,3.2c11.8-11.5,24.8-15.5,41-14.3
			c22.2,1.6,44.6-1.2,66.6,3.9c31.7,7.3,56.9,25.3,78.5,48.8c11.8,12.8,21.5,27.1,31.4,41.3c7,10,0.7,14.6-5.6,20.5
			c-6.8,6.4-11.2,3.4-17.2-1.6c-22.4-18.7-47.4-31.8-77.3-34.2c-16.8-1.3-22.2,3.1-22.2,19.7C429.1,198.7,429.1,229.2,429.1,259.6z"
			/>
		<path class="st1" d="M689.1,323.2c0,45.9,0.1,91.9,0,137.8c-0.1,30.7-21.5,53.2-53.4,56.4c-26.7,2.7-54.2-19.3-59.5-47
			c-2.6-13.8-2.3-27.8-2.3-41.6c-0.2-81.7,0-163.4-0.3-245.1c0-10.4,5.8-17.7,10.1-25.8c11.9-22.7,24.4-45,36.8-67.4
			c2.3-4.2,4.2-9.9,9.9-9.6c4.9,0.2,7,5,9.3,9c15,26.1,30,52.3,45.2,78.3c2.8,4.8,4,9.4,4,14.9c-0.2,46.7-0.1,93.4-0.1,140.1
			C688.9,323.2,689,323.2,689.1,323.2z"/>
		<path class="st0" d="M369.2,326.1c0-50-0.9-100.1-2.4-150.1c-0.2-7.5,1.1-11.1,9.7-10.3c9.4,0.8,18.9,0.7,28.3,0.2
			c7.5-0.4,10.4,1.6,10.6,9.7c1,41.7,2.1,83.5,4.1,125.2c2.7,57.1,6.2,114.2,9.1,171.3c1.1,20.4-2.5,23.7-23.1,23.4
			c-7.9-0.1-15.9-0.1-23.8-0.4c-13.5-0.4-18-5.3-17.6-19C365.8,426.1,367.5,376.1,369.2,326.1z"/>
		<path class="st0" d="M532.4,167.6c-12.4-7.8-24.4-16.9-38.5-22.5c-13.1-5.3-26.4-9.1-40.4-10.6c-14.2-1.5-27.4,0.4-35.3,14.4
			c-1.8,3.3-4.5,3.4-7.7,3.4c-7.9-0.1-15.9-0.3-23.8-0.1c-12.1,0.3-22.2-0.2-31.9-11c-11.7-13-29.1-14.8-46.2-8.2
			c-4.3,1.6-9,4.1-10.2,8.4c-4,14-15.1,9.7-24.1,9.5c-5.3-0.1-8.5-4.5-8.5-10.2c0.2-15.4,0.4-30.8,0.7-46.3c0.1-5.7,3-9.8,8.9-9.6
			c6.6,0.3,14.5-4,19.1,4.8c7.4,14,23.7,19.4,38.4,12.7c3.1-1.4,6.7-2.8,8.6-5.3c10.6-14,25.4-13.5,40.8-13.1
			c25.3,0.7,50.7-0.7,74.7,9.5c33.4,14.2,56.4,39.5,76.1,68.7C534.3,163.7,535.2,165.4,532.4,167.6z"/>
		<path class="st2" d="M674.8,314.4c0,38-0.2,76.1,0.2,114.1c0.1,8-2.3,10-10.1,10c-26.3-0.2-26.3,0.1-26.3-26
			c0-66.3,0.3-132.6-0.3-198.9c-0.1-10.9,3.7-15.1,13.4-18.1c23.3-7.3,23.2-7.7,23.2,16C674.8,245.9,674.8,280.2,674.8,314.4z"/>
		<path class="st2" d="M588,314.6c0-38,0.2-76.1-0.1-114.1c-0.1-8.8,1.8-11.3,11-8.2c25.1,8.4,25.2,8.1,25.2,33.8
			c0,67.8-0.1,135.6,0.2,203.3c0,6.8-1.3,9-8.5,9.1c-27.7,0.4-27.7,0.7-27.7-26.8C588,379.4,588,347,588,314.6z"/>
		<path class="st2" d="M632.7,453c11.7,0,23.4,0.2,35-0.1c5.5-0.1,7.9,1.1,7.9,7.4c-0.2,22.4-20,42-43.1,42.1
			c-23,0.1-42.3-18.4-43-40.7c-0.2-6.3,1.8-8.9,8.2-8.7C609.3,453.2,621,453,632.7,453z"/>
		<path class="st2" d="M631.1,136.1c15.8-5.8,20.9,5.2,26.9,15.6c12.8,22.3,12.3,20.8-10.8,31.3c-19.8,9-34.9-2.6-51.8-6.8
			c-3.6-0.9-2.4-3.8-0.9-6.3c5.3-9.5,10.5-19.1,15.6-28.8C615.3,131.1,624.6,138.2,631.1,136.1z"/>
		<path class="st3" d="M630.6,121.4c-3.5,0.7-8.5,0.5-7.9-2.9c0.7-4.2,2.6-11.4,7.4-11.4c5.5,0,7.8,7.4,8.3,11.8
			C639.1,124.5,632.9,119.2,630.6,121.4z"/>
	</g>
</g>
</svg>
